<svg xmlns="http://www.w3.org/2000/svg" width="130.563" height="34.092"><g data-name="Ebene 2"><g data-name="Layer 1"><path data-name="Path 1448" d="M32.334 10.155a17 17 0 01-8.558 22.417 16.766 16.766 0 01-22.29-8.686A16.946 16.946 0 0116.878 0a17.54 17.54 0 016.9 1.4l-2.556 2.624a14.1 14.1 0 00-4.343-.766 13.6 13.6 0 1013.6 13.6 11.349 11.349 0 00-.766-4.343z" fill="#00677F"/><path data-name="Path 1449" d="M38.913 4.598h14.818v3.194H42.49v7.152h10.154v3.194H42.49v8.116h11.943v3.194h-15.52z" fill="#00677F"/><path data-name="Path 1450" d="M61.395 4.598v24.717h-3.513V4.598z" fill="#00677F"/><path data-name="Path 1451" d="M64.843 20.821a8.445 8.445 0 018.366-8.75c4.982 0 8.047 4.087 8.047 8.75v.959H68.292a5.324 5.324 0 005.684 5.046 7.383 7.383 0 005.046-2.107l1.788 2.107a10.075 10.075 0 01-6.962 2.746c-5.365.062-9.005-3.578-9.005-8.751zm3.64-1.533h8.942a4.307 4.307 0 00-4.343-4.343 4.61 4.61 0 00-4.599 4.343z" fill="#00677F"/><path data-name="Path 1452" d="M95.947 29.315l-7.92-8.558v8.558h-3.512V4.598h3.512v14.818l6.706-6.834h4.343l-7.473 7.09 9.2 9.516h-4.854z" fill="#00677F"/><path data-name="Path 1453" d="M101.95 22.226V7.217h3.513v5.3h5.94v2.875h-5.94v7.47c0 2.3 1.278 3.7 3.513 3.7a7.774 7.774 0 002.746-.511l.958 2.938a11.483 11.483 0 01-3.832.638c-5.237.008-6.898-2.865-6.898-7.401z" fill="#00677F"/><path data-name="Path 1454" d="M113.574 20.821c0-5.365 3.9-8.75 8.239-8.75a7.218 7.218 0 015.492 2.427V12.39h3.258v16.8h-3.258v-1.98a6.4 6.4 0 01-5.365 2.427c-4.789-.003-8.366-3.515-8.366-8.816zm3.449 0c0 3.513 2.3 5.94 5.3 5.94a5.826 5.826 0 004.854-2.555v-6.45a5.987 5.987 0 00-4.982-2.746c-3.258 0-5.174 2.682-5.174 5.812z" fill="#00677F"/><path data-name="Path 1455" d="M16.943 15.967a1.039 1.039 0 00-1.086 1.086 1.086 1.086 0 102.171 0 1.222 1.222 0 00-1.086-1.086z" fill="#2DCCD3"/><path data-name="Path 1456" d="M20.839 10.922a2.108 2.108 0 102.107 2.107 2.01 2.01 0 00-2.107-2.107z" fill="#2DCCD3"/><path data-name="Path 1457" d="M26.715 3.385a3.777 3.777 0 00-3.832 3.7 3.769 3.769 0 107.536.127 3.736 3.736 0 00-3.704-3.827z" fill="#2DCCD3"/></g></g></svg>